<svg
            width="210"
            height="210"
            viewBox="0 0 210 210"
            fill="none"
            xmlns="http://www.w3.org/2000/svg"
          >
            <path
              d="M143.236 72.1786H133.647C131.561 72.1786 129.578 73.1805 128.351 74.8981L96.2078 119.473L81.6494 99.2711C80.4226 97.574 78.4597 96.5517 76.3536 96.5517H66.7639C65.4348 96.5517 64.6578 98.0648 65.4348 99.1485L90.912 134.481C91.5139 135.321 92.3073 136.006 93.2265 136.478C94.1457 136.95 95.1642 137.196 96.1976 137.196C97.231 137.196 98.2495 136.95 99.1687 136.478C100.088 136.006 100.881 135.321 101.483 134.481L144.545 74.7754C145.342 73.6917 144.565 72.1786 143.236 72.1786Z"
              fill="#00677C"
            />
            <path
              d="M105 13.0862C54.4141 13.0862 13.397 54.1033 13.397 104.69C13.397 155.276 54.4141 196.293 105 196.293C155.587 196.293 196.604 155.276 196.604 104.69C196.604 54.1033 155.587 13.0862 105 13.0862ZM105 180.753C63.0019 180.753 28.9368 146.688 28.9368 104.69C28.9368 62.6911 63.0019 28.6261 105 28.6261C146.999 28.6261 181.064 62.6911 181.064 104.69C181.064 146.688 146.999 180.753 105 180.753Z"
              fill="#00677C"
            />
          </svg>