<svg width="18" height="18" viewBox="0 0 18 18" fill="none" xmlns="http://www.w3.org/2000/svg">
<path d="M14.625 5.48438H12.2344V5.20312C12.2344 3.41719 10.7859 1.96875 9 1.96875C7.21406 1.96875 5.76562 3.41719 5.76562 5.20312V5.48438H3.375C3.06387 5.48438 2.8125 5.73574 2.8125 6.04688V15.4688C2.8125 15.7799 3.06387 16.0312 3.375 16.0312H14.625C14.9361 16.0312 15.1875 15.7799 15.1875 15.4688V6.04688C15.1875 5.73574 14.9361 5.48438 14.625 5.48438ZM7.03125 5.20312C7.03125 4.11504 7.91191 3.23438 9 3.23438C10.0881 3.23438 10.9688 4.11504 10.9688 5.20312V5.48438H7.03125V5.20312ZM13.9219 14.7656H4.07812V6.75H5.76562V8.29688C5.76562 8.37422 5.82891 8.4375 5.90625 8.4375H6.89062C6.96797 8.4375 7.03125 8.37422 7.03125 8.29688V6.75H10.9688V8.29688C10.9688 8.37422 11.032 8.4375 11.1094 8.4375H12.0938C12.1711 8.4375 12.2344 8.37422 12.2344 8.29688V6.75H13.9219V14.7656Z" fill="#00677C"/>
</svg>
