<svg
    width="86"
    height="14"
    viewBox="0 0 86 14"
    fill="none"
    xmlns="http://www.w3.org/2000/svg"
    >
     <path
        d="M7.0956 0.326172L8.55798 4.82694H13.2904L9.46179 7.60856L10.9242 12.1093L7.0956 9.3277L3.26702 12.1093L4.72941 7.60856L0.900828 4.82694H5.63321L7.0956 0.326172Z"
        fill="#A9ABAD"
    />
    <path
        d="M25.1332 0.326172L26.5956 4.82694H31.328L27.4994 7.60856L28.9618 12.1093L25.1332 9.3277L21.3046 12.1093L22.767 7.60856L18.9384 4.82694H23.6708L25.1332 0.326172Z"
        fill="#A9ABAD"
    />
    <path
        d="M43.1705 0.326172L44.6329 4.82694H49.3653L45.5367 7.60856L46.9991 12.1093L43.1705 9.3277L39.342 12.1093L40.8044 7.60856L36.9758 4.82694H41.7082L43.1705 0.326172Z"
        fill="#FFEF60"
    />
    <path
        d="M61.2081 0.326172L62.6705 4.82694H67.4029L63.5743 7.60856L65.0367 12.1093L61.2081 9.3277L57.3796 12.1093L58.842 7.60856L55.0134 4.82694H59.7458L61.2081 0.326172Z"
        fill="#FEEF6A"
    />
    <path
        d="M79.246 0.326172L80.7084 4.82694H85.4408L81.6122 7.60856L83.0746 12.1093L79.246 9.3277L75.4174 12.1093L76.8798 7.60856L73.0512 4.82694H77.7836L79.246 0.326172Z"
        fill="#FFEF60"
    />
</svg>