<svg width="18" height="18" viewBox="0 0 18 18" fill="none" xmlns="http://www.w3.org/2000/svg">
<path d="M16.2228 12.3381H5.75507L6.28066 11.2676L15.0135 11.2518C15.3088 11.2518 15.5619 11.0408 15.6146 10.749L16.824 3.97969C16.8557 3.80215 16.8082 3.61934 16.6922 3.48047C16.6348 3.41213 16.5633 3.35707 16.4826 3.31913C16.4018 3.28119 16.3138 3.26127 16.2246 3.26074L5.11523 3.22383L5.02031 2.77734C4.96054 2.49258 4.7039 2.28516 4.4121 2.28516H1.69628C1.53171 2.28516 1.37389 2.35053 1.25752 2.4669C1.14115 2.58327 1.07578 2.7411 1.07578 2.90566C1.07578 3.07023 1.14115 3.22806 1.25752 3.34443C1.37389 3.4608 1.53171 3.52617 1.69628 3.52617H3.90937L4.32421 5.49844L5.3455 10.4432L4.03066 12.5895C3.96238 12.6816 3.92125 12.791 3.91193 12.9054C3.90261 13.0197 3.92547 13.1343 3.97792 13.2363C4.08339 13.4455 4.29609 13.5773 4.53163 13.5773H5.63554C5.4002 13.8899 5.27309 14.2707 5.27343 14.6619C5.27343 15.6568 6.08203 16.4654 7.07695 16.4654C8.07187 16.4654 8.88046 15.6568 8.88046 14.6619C8.88046 14.2699 8.75038 13.8885 8.51835 13.5773H11.3502C11.1149 13.8899 10.9877 14.2707 10.9881 14.6619C10.9881 15.6568 11.7967 16.4654 12.7916 16.4654C13.7865 16.4654 14.5951 15.6568 14.5951 14.6619C14.5951 14.2699 14.465 13.8885 14.233 13.5773H16.2246C16.5656 13.5773 16.8451 13.2996 16.8451 12.9568C16.8441 12.7924 16.7781 12.6351 16.6615 12.5192C16.5449 12.4033 16.3872 12.3382 16.2228 12.3381V12.3381ZM5.37363 4.44727L15.4951 4.48066L14.5037 10.0318L6.55312 10.0459L5.37363 4.44727ZM7.07695 15.2174C6.77109 15.2174 6.52148 14.9678 6.52148 14.6619C6.52148 14.3561 6.77109 14.1064 7.07695 14.1064C7.38281 14.1064 7.63242 14.3561 7.63242 14.6619C7.63242 14.8092 7.57389 14.9505 7.46972 15.0547C7.36555 15.1589 7.22427 15.2174 7.07695 15.2174V15.2174ZM12.7916 15.2174C12.4857 15.2174 12.2361 14.9678 12.2361 14.6619C12.2361 14.3561 12.4857 14.1064 12.7916 14.1064C13.0975 14.1064 13.3471 14.3561 13.3471 14.6619C13.3471 14.8092 13.2885 14.9505 13.1844 15.0547C13.0802 15.1589 12.9389 15.2174 12.7916 15.2174V15.2174Z" fill="#061E25"/>
</svg>
