<svg width="26" height="26" viewBox="0 0 26 26" fill="none" xmlns="http://www.w3.org/2000/svg">
<path fill-rule="evenodd" clip-rule="evenodd" d="M13.1073 1.78461C6.7956 1.78461 1.67896 6.90125 1.67896 13.213C1.67896 19.5247 6.7956 24.6413 13.1073 24.6413C19.419 24.6413 24.5356 19.5247 24.5356 13.213C24.5356 7.12203 19.7707 2.14402 13.7651 1.80322C13.721 1.79109 13.6747 1.78461 13.6268 1.78461C13.5958 1.78461 13.5655 1.78731 13.5361 1.7925C13.3938 1.78725 13.2508 1.78461 13.1073 1.78461ZM3.75684 13.213C3.75684 8.04883 7.94318 3.86249 13.1073 3.86249C18.2714 3.86249 22.4578 8.04883 22.4578 13.213C22.4578 18.3771 18.2714 22.5634 13.1073 22.5634C7.94318 22.5634 3.75684 18.3771 3.75684 13.213Z" fill="#191C1D"/>
</svg>
