<svg width="26" height="26" viewBox="0 0 26 26" fill="none" xmlns="http://www.w3.org/2000/svg">
<path d="M17.661 9.55414H16.5189C16.2706 9.55414 16.0344 9.67345 15.8883 9.878L12.0604 15.1863L10.3267 12.7805C10.1806 12.5784 9.94683 12.4567 9.69602 12.4567H8.554C8.39572 12.4567 8.30319 12.6369 8.39572 12.7659L11.4298 16.9736C11.5014 17.0737 11.5959 17.1552 11.7054 17.2114C11.8148 17.2677 11.9361 17.297 12.0592 17.297C12.1823 17.297 12.3036 17.2677 12.413 17.2114C12.5225 17.1552 12.617 17.0737 12.6887 16.9736L17.8168 9.86339C17.9118 9.73433 17.8192 9.55414 17.661 9.55414Z" fill="#191C1D"/>
<path d="M13.1074 2.51697C7.08313 2.51697 2.19849 7.40161 2.19849 13.4258C2.19849 19.4501 7.08313 24.3347 13.1074 24.3347C19.1316 24.3347 24.0162 19.4501 24.0162 13.4258C24.0162 7.40161 19.1316 2.51697 13.1074 2.51697ZM13.1074 22.4841C8.10584 22.4841 4.0491 18.4274 4.0491 13.4258C4.0491 8.42432 8.10584 4.36758 13.1074 4.36758C18.1089 4.36758 22.1656 8.42432 22.1656 13.4258C22.1656 18.4274 18.1089 22.4841 13.1074 22.4841Z" fill="#191C1D"/>
</svg>
