<svg width="19" height="19" viewBox="0 0 19 19" fill="none" xmlns="http://www.w3.org/2000/svg">
<path d="M16.4526 3.02698H1.82764C1.5165 3.02698 1.26514 3.27834 1.26514 3.58948V14.8395C1.26514 15.1506 1.5165 15.402 1.82764 15.402H16.4526C16.7638 15.402 17.0151 15.1506 17.0151 14.8395V3.58948C17.0151 3.27834 16.7638 3.02698 16.4526 3.02698ZM2.53076 4.2926H15.7495V6.40198H2.53076V4.2926ZM15.7495 14.1364H2.53076V7.94885H15.7495V14.1364ZM11.5835 13.0114H14.4839C14.5612 13.0114 14.6245 12.9481 14.6245 12.8707V11.6051C14.6245 11.5278 14.5612 11.4645 14.4839 11.4645H11.5835C11.5062 11.4645 11.4429 11.5278 11.4429 11.6051V12.8707C11.4429 12.9481 11.5062 13.0114 11.5835 13.0114Z" fill="white"/>
</svg>
