<svg width="51" height="50" viewBox="0 0 51 50" fill="none" xmlns="http://www.w3.org/2000/svg">
<path d="M45.8125 7.8125H5.1875C4.32324 7.8125 3.625 8.51074 3.625 9.375V40.625C3.625 41.4893 4.32324 42.1875 5.1875 42.1875H45.8125C46.6768 42.1875 47.375 41.4893 47.375 40.625V9.375C47.375 8.51074 46.6768 7.8125 45.8125 7.8125ZM43.8594 13.2227V38.6719H7.14062V13.2227L5.79297 12.1729L7.71191 9.70703L9.80176 11.333H41.2031L43.293 9.70703L45.2119 12.1729L43.8594 13.2227ZM41.2031 11.3281L25.5 23.5352L9.79687 11.3281L7.70703 9.70215L5.78809 12.168L7.13574 13.2178L23.8154 26.1865C24.2951 26.5592 24.8852 26.7615 25.4927 26.7615C26.1001 26.7615 26.6902 26.5592 27.1699 26.1865L43.8594 13.2227L45.207 12.1729L43.2881 9.70703L41.2031 11.3281Z" fill="#00677C"/>
</svg>
