<svg width="51" height="50" viewBox="0 0 51 50" fill="none" xmlns="http://www.w3.org/2000/svg">
<path d="M25.5 27.0833C28.9518 27.0833 31.75 24.285 31.75 20.8333C31.75 17.3815 28.9518 14.5833 25.5 14.5833C22.0482 14.5833 19.25 17.3815 19.25 20.8333C19.25 24.285 22.0482 27.0833 25.5 27.0833Z" stroke="#00677C" stroke-width="2" stroke-linecap="round" stroke-linejoin="round"/>
<path d="M25.5002 4.16663C21.0799 4.16663 16.8407 5.92257 13.7151 9.04818C10.5894 12.1738 8.8335 16.413 8.8335 20.8333C8.8335 24.775 9.671 27.3541 11.9585 30.2083L25.5002 45.8333L39.0418 30.2083C41.3293 27.3541 42.1668 24.775 42.1668 20.8333C42.1668 16.413 40.4109 12.1738 37.2853 9.04818C34.1597 5.92257 29.9204 4.16663 25.5002 4.16663V4.16663Z" stroke="#00677C" stroke-width="2" stroke-linecap="round" stroke-linejoin="round"/>
</svg>
