<svg
                width="48"
                height="48"
                viewBox="0 0 48 48"
                fill="none"
                xmlns="http://www.w3.org/2000/svg"
              >
                <rect width="48" height="48" rx="24" fill="#F2F0F0" />
                <path
                  fill-rule="evenodd"
                  clip-rule="evenodd"
                  d="M24 6.33337C19.3976 6.33337 15.6667 10.0643 15.6667 14.6667C15.6667 19.2691 19.3976 23 24 23C28.6024 23 32.3333 19.2691 32.3333 14.6667C32.3333 10.0643 28.6024 6.33337 24 6.33337ZM19 14.6667C19 11.9053 21.2386 9.66671 24 9.66671C26.7614 9.66671 29 11.9053 29 14.6667C29 17.4281 26.7614 19.6667 24 19.6667C21.2386 19.6667 19 17.4281 19 14.6667Z"
                  fill="#717D96"
                />
                <path
                  d="M17.3333 26.3334C15.1232 26.3334 13.0036 27.2113 11.4408 28.7742C9.87797 30.337 9 32.4566 9 34.6667V38C9 38.9205 9.74619 39.6667 10.6667 39.6667C11.5871 39.6667 12.3333 38.9205 12.3333 38V34.6667C12.3333 33.3406 12.8601 32.0689 13.7978 31.1312C14.7355 30.1935 16.0073 29.6667 17.3333 29.6667H30.6667C31.9927 29.6667 33.2645 30.1935 34.2022 31.1312C35.1399 32.0689 35.6667 33.3406 35.6667 34.6667V38C35.6667 38.9205 36.4129 39.6667 37.3333 39.6667C38.2538 39.6667 39 38.9205 39 38V34.6667C39 32.4566 38.122 30.337 36.5592 28.7742C34.9964 27.2113 32.8768 26.3334 30.6667 26.3334H17.3333Z"
                  fill="#717D96"
                />
              </svg>