<svg
                width="157"
                height="16"
                viewBox="0 0 157 16"
                fill="none"
                xmlns="http://www.w3.org/2000/svg"
              >
                <path
                  fill-rule="evenodd"
                  clip-rule="evenodd"
                  d="M8.59778 1.03821C8.48547 0.810674 8.25373 0.666626 7.99998 0.666626C7.74623 0.666626 7.51449 0.810674 7.40217 1.03821L5.49714 4.8976L1.23689 5.5203C0.985853 5.557 0.7774 5.733 0.699148 5.97434C0.620896 6.21568 0.686411 6.48051 0.868157 6.65753L3.9503 9.65954L3.22291 13.9006C3.18001 14.1507 3.28284 14.4035 3.48816 14.5527C3.69347 14.7018 3.96567 14.7215 4.19028 14.6033L7.99998 12.5999L11.8097 14.6033C12.0343 14.7215 12.3065 14.7018 12.5118 14.5527C12.7171 14.4035 12.82 14.1507 12.7771 13.9006L12.0497 9.65954L15.1318 6.65753C15.3135 6.48051 15.3791 6.21568 15.3008 5.97434C15.2226 5.733 15.0141 5.557 14.7631 5.5203L10.5028 4.8976L8.59778 1.03821ZM6.53778 5.80171L7.99998 2.83946L9.46217 5.80171C9.5592 5.99827 9.74666 6.13458 9.96356 6.16628L13.2344 6.64436L10.8682 8.94905C10.7109 9.10222 10.6391 9.32297 10.6762 9.53932L11.2345 12.7944L8.31028 11.2566C8.11602 11.1544 7.88393 11.1544 7.68968 11.2566L4.76543 12.7944L5.32372 9.53932C5.36083 9.32297 5.28905 9.10222 5.1318 8.94905L2.76559 6.64436L6.0364 6.16628C6.2533 6.13458 6.44076 5.99827 6.53778 5.80171Z"
                  fill="#5E5E5F"
                />
                <path
                  fill-rule="evenodd"
                  clip-rule="evenodd"
                  d="M26.5978 1.03821C26.4855 0.810674 26.2537 0.666626 26 0.666626C25.7462 0.666626 25.5145 0.810674 25.4022 1.03821L23.4971 4.8976L19.2369 5.5203C18.9859 5.557 18.7774 5.733 18.6991 5.97434C18.6209 6.21568 18.6864 6.48051 18.8682 6.65753L21.9503 9.65954L21.2229 13.9006C21.18 14.1507 21.2828 14.4035 21.4882 14.5527C21.6935 14.7018 21.9657 14.7215 22.1903 14.6033L26 12.5999L29.8097 14.6033C30.0343 14.7215 30.3065 14.7018 30.5118 14.5527C30.7171 14.4035 30.82 14.1507 30.7771 13.9006L30.0497 9.65954L33.1318 6.65753C33.3135 6.48051 33.3791 6.21568 33.3008 5.97434C33.2226 5.733 33.0141 5.557 32.7631 5.5203L28.5028 4.8976L26.5978 1.03821ZM24.5378 5.80171L26 2.83946L27.4622 5.80171C27.5592 5.99827 27.7467 6.13458 27.9636 6.16628L31.2344 6.64436L28.8682 8.94905C28.7109 9.10222 28.6391 9.32297 28.6762 9.53932L29.2345 12.7944L26.3103 11.2566C26.116 11.1544 25.8839 11.1544 25.6897 11.2566L22.7654 12.7944L23.3237 9.53932C23.3608 9.32297 23.289 9.10222 23.1318 8.94905L20.7656 6.64436L24.0364 6.16628C24.2533 6.13458 24.4408 5.99827 24.5378 5.80171Z"
                  fill="#5E5E5F"
                />
                <path
                  fill-rule="evenodd"
                  clip-rule="evenodd"
                  d="M44.5978 1.03821C44.4855 0.810674 44.2537 0.666626 44 0.666626C43.7462 0.666626 43.5145 0.810674 43.4022 1.03821L41.4971 4.8976L37.2369 5.5203C36.9859 5.557 36.7774 5.733 36.6991 5.97434C36.6209 6.21568 36.6864 6.48051 36.8682 6.65753L39.9503 9.65954L39.2229 13.9006C39.18 14.1507 39.2828 14.4035 39.4882 14.5527C39.6935 14.7018 39.9657 14.7215 40.1903 14.6033L44 12.5999L47.8097 14.6033C48.0343 14.7215 48.3065 14.7018 48.5118 14.5527C48.7171 14.4035 48.82 14.1507 48.7771 13.9006L48.0497 9.65954L51.1318 6.65753C51.3135 6.48051 51.3791 6.21568 51.3008 5.97434C51.2226 5.733 51.0141 5.557 50.7631 5.5203L46.5028 4.8976L44.5978 1.03821ZM42.5378 5.80171L44 2.83946L45.4622 5.80171C45.5592 5.99827 45.7467 6.13458 45.9636 6.16628L49.2344 6.64436L46.8682 8.94905C46.7109 9.10222 46.6391 9.32297 46.6762 9.53932L47.2345 12.7944L44.3103 11.2566C44.116 11.1544 43.8839 11.1544 43.6897 11.2566L40.7654 12.7944L41.3237 9.53932C41.3608 9.32297 41.289 9.10222 41.1318 8.94905L38.7656 6.64436L42.0364 6.16628C42.2533 6.13458 42.4408 5.99827 42.5378 5.80171Z"
                  fill="#5E5E5F"
                />
                <path
                  fill-rule="evenodd"
                  clip-rule="evenodd"
                  d="M62.5978 1.03821C62.4855 0.810674 62.2537 0.666626 62 0.666626C61.7462 0.666626 61.5145 0.810674 61.4022 1.03821L59.4971 4.8976L55.2369 5.5203C54.9859 5.557 54.7774 5.733 54.6991 5.97434C54.6209 6.21568 54.6864 6.48051 54.8682 6.65753L57.9503 9.65954L57.2229 13.9006C57.18 14.1507 57.2828 14.4035 57.4882 14.5527C57.6935 14.7018 57.9657 14.7215 58.1903 14.6033L62 12.5999L65.8097 14.6033C66.0343 14.7215 66.3065 14.7018 66.5118 14.5527C66.7171 14.4035 66.82 14.1507 66.7771 13.9006L66.0497 9.65954L69.1318 6.65753C69.3135 6.48051 69.3791 6.21568 69.3008 5.97434C69.2226 5.733 69.0141 5.557 68.7631 5.5203L64.5028 4.8976L62.5978 1.03821ZM60.5378 5.80171L62 2.83946L63.4622 5.80171C63.5592 5.99827 63.7467 6.13458 63.9636 6.16628L67.2344 6.64436L64.8682 8.94905C64.7109 9.10222 64.6391 9.32297 64.6762 9.53932L65.2345 12.7944L62.3103 11.2566C62.116 11.1544 61.8839 11.1544 61.6897 11.2566L58.7654 12.7944L59.3237 9.53932C59.3608 9.32297 59.289 9.10222 59.1318 8.94905L56.7656 6.64436L60.0364 6.16628C60.2533 6.13458 60.4408 5.99827 60.5378 5.80171Z"
                  fill="#5E5E5F"
                />
                <path
                  fill-rule="evenodd"
                  clip-rule="evenodd"
                  d="M80.5978 1.03821C80.4855 0.810674 80.2537 0.666626 80 0.666626C79.7462 0.666626 79.5145 0.810674 79.4022 1.03821L77.4971 4.8976L73.2369 5.5203C72.9859 5.557 72.7774 5.733 72.6991 5.97434C72.6209 6.21568 72.6864 6.48051 72.8682 6.65753L75.9503 9.65954L75.2229 13.9006C75.18 14.1507 75.2828 14.4035 75.4882 14.5527C75.6935 14.7018 75.9657 14.7215 76.1903 14.6033L80 12.5999L83.8097 14.6033C84.0343 14.7215 84.3065 14.7018 84.5118 14.5527C84.7171 14.4035 84.82 14.1507 84.7771 13.9006L84.0497 9.65954L87.1318 6.65753C87.3135 6.48051 87.3791 6.21568 87.3008 5.97434C87.2226 5.733 87.0141 5.557 86.7631 5.5203L82.5028 4.8976L80.5978 1.03821ZM78.5378 5.80171L80 2.83946L81.4622 5.80171C81.5592 5.99827 81.7467 6.13458 81.9636 6.16628L85.2344 6.64436L82.8682 8.94905C82.7109 9.10222 82.6391 9.32297 82.6762 9.53932L83.2345 12.7944L80.3103 11.2566C80.116 11.1544 79.8839 11.1544 79.6897 11.2566L76.7654 12.7944L77.3237 9.53932C77.3608 9.32297 77.289 9.10222 77.1318 8.94905L74.7656 6.64436L78.0364 6.16628C78.2533 6.13458 78.4408 5.99827 78.5378 5.80171Z"
                  fill="#5E5E5F"
                />
              </svg>